

 
http://www.imdb.com/title/tt1408101/


After the crew of the Enterprise find an unstoppable force of terror from within their own organization, Captain Kirk leads a manhunt to a war-zone world to capture a one man weapon of mass destruction. 



Director:
 J.J. Abrams 

Writers:
 Roberto Orci, Alex Kurtzman

Stars:
 Chris Pine, Zachary Quinto, Zoe Saldana

Genres:
  Action |  Adventure |  Sci-Fi 

Country:
 USA 

Language:
 English | Klingon 




Format                                   : AVI
 Format/Info                              : Audio Video Interleave
 File size                                : 1.46 GiB
 Duration                                 : 2h 5mn
 Overall bit rate                         : 1 664 Kbps
 Writing application                      : VirtualDubMod 1.5.10.2 (build 2540/release)
 Writing library                          : VirtualDubMod build 2540/release

 Video
 ID                                       : 0
 Format                                   : MPEG-4 Visual
 Format profile                           : Advanced Simple@L5
 Format settings, BVOP                    : 2
 Format settings, QPel                    : No
 Format settings, GMC                     : No warppoints
 Format settings, Matrix                  : Default (H.263)
 Muxing mode                              : Packed bitstream
 Codec ID                                 : XVID
 Codec ID/Hint                            : XviD
 Duration                                 : 2h 5mn
 Bit rate                                 : 1 526 Kbps
 Width                                    : 720 pixels
 Height                                   : 288 pixels
 Display aspect ratio                     : 2.500
 Frame rate                               : 25.000 fps
 Color space                              : YUV
 Chroma subsampling                       : 4:2:0
 Bit depth                                : 8 bits
 Scan type                                : Progressive
 Compression mode                         : Lossy
 Bits/(Pixel*Frame)                       : 0.294
 Stream size                              : 1.34 GiB (92%)
 Writing library                          : XviD 64

 Audio
 ID                                       : 1
 Format                                   : MPEG Audio
 Format version                           : Version 1
 Format profile                           : Layer 3
 Codec ID                                 : 55
 Codec ID/Hint                            : MP3
 Duration                                 : 2h 5mn
 Bit rate mode                            : Constant
 Bit rate                                 : 128 Kbps
 Channel(s)                               : 2 channels
 Sampling rate                            : 44.1 KHz
 Compression mode                         : Lossy
 Stream size                              : 115 MiB (8%)
 Alignment                                : Split accross interleaves
 Interleave, duration                     : 40 ms (1.00 video frame)
 Interleave, preload duration             : 500 ms
 Writing library                          : LAME3.98{J^B



 Source Used

 Video    1st 6mins (i dont know) thanks anyway /Lum1X - Thanks

 Audio    1st 6mins (i dont know)thanks /  moviesounds123 - Thanks





screens


    	http://addpix.net/viewer.php?file=68729191011587172920.jpg
    	http://addpix.net/viewer.php?file=41023253125427167026.jpg
    	http://addpix.net/viewer.php?file=67361661799355305276.jpg
    	http://addpix.net/viewer.php?file=36798614914065138987.jpg
    	http://addpix.net/viewer.php?file=14132898479225313116.jpg